<svg version="1.0" xmlns="http://www.w3.org/2000/svg" width="3492" height="788" viewBox="0 0 2619 591"><path d="M730.2 9.2c-2.8 5.1-71.7 135.7-153.2 290.3C495.5 454 427.5 582.9 426 585.7l-2.8 5.3H549.5l93-176.9c51.2-97.3 93.2-176.7 93.5-176.4.3.2 42.2 79.7 93.2 176.6l92.6 176.2 63.2.3c36.1.1 63-.2 62.8-.7C1046.4 586.4 736.4 0 735.8 0c-.3 0-2.9 4.2-5.6 9.2zM1760.4 3.2c-.9 1.8-70.7 134.2-155.1 294.1-84.4 159.9-153.6 291.4-154 292.2-.4 1.3 7.5 1.5 62.4 1.5h62.9l92.9-176.5c51-97.1 93.1-176.5 93.4-176.5.4 0 42.5 79.4 93.5 176.5l92.9 176.5h62.9c50 0 62.9-.3 62.5-1.3C2073 585.3 1763.8.4 1763 .2c-.5-.2-1.6 1.2-2.6 3zM387.5 21.7c-29.7 10.3-54.2 18.8-54.4 19-.2.1-.7 78.9-1.1 175-.9 190.7-.6 181.3-6.6 200.4-10.5 33.3-33 53.2-69 60.9-7.3 1.6-14.9 2.3-28.9 2.7-22.8.6-36.5-1-52.5-6.3-15.3-5.1-23.9-10.3-34.5-20.9-10.6-10.6-15.8-19.2-20.9-34.6-5.3-15.8-6.6-27.4-6.6-57.8 0-21.6-.2-26.1-1.4-26.1-1.1 0-106.1 33.8-110.6 35.6-1.1.5-1.2.8-.2 1.1.9.3 1.2 3.8 1.2 12.4 0 38.8 9.3 80.7 24.7 111.4 12 24.1 32.5 47.4 53.7 61.3 25.6 16.8 55.9 27.6 92.6 32.8 15.4 2.1 65.2 3 83.2 1.5C372.7 579.8 433.9 516 442 396.5c1.1-17.5 1.4-393.5.3-393.4-.5 0-25.1 8.4-54.8 18.6zM1058.7 27.7c-.4 13.7-.7 38.6-.7 55.5V114h84.8c87.2 0 100.7.5 118.7 4.1 59.8 12 114.1 59.4 134.4 117.2 8.1 23.2 10.5 40 9.8 67.7-.6 22.3-2.2 32.3-7.8 50.4-16.4 53.1-63.3 100.4-117 118-22.2 7.3-27.8 7.9-72.1 8.4l-39.8.4V315c0-156.8-.1-165.1-1.7-164.6-1 .3-25.9 8.6-55.3 18.4l-53.5 17.9-.3 202.2-.2 202.2 99.7-.4c107.3-.4 103.4-.2 130.4-5.8 50.2-10.3 98-36.1 137.4-74.1 54.6-52.6 83.9-111.9 90.6-183 1.7-19.1.7-60.6-2-78.2-4.5-28.8-12.7-54.9-25.6-81.1-14.2-29-32.9-54.9-57-79-52.1-52.1-112.3-80-184.6-85.5-7.7-.6-50.4-1-100.5-1h-87.1l-.6 24.7zM2085 297v294h111V353h28.5l119 119 119 119h78.2c43.1 0 78.3-.3 78.3-.7 0-.5-53.4-54.2-118.7-119.5-75.5-75.5-118.2-118.9-117.3-119.2.8-.2 5.6-.9 10.5-1.6 27.9-3.6 55.6-14 74.9-28.3 30.2-22.4 47.9-55.2 55.3-102.7 2.6-16.5 2.6-65.5 0-82-3.4-21.5-8-37.2-15.7-53.6-6.2-13.2-13.5-23.8-23.4-34.2-18.5-19.5-40.7-31.7-70.6-39.1-27.2-6.7-20.3-6.4-182.2-6.8L2085 2.9V297zm287.2-180.7c28.3 6.8 42.8 27.7 42.8 61.7 0 20.6-5.1 36-15.5 46.9-6.5 6.9-14.3 11.3-25.2 14.3-7.7 2.2-8.8 2.2-93 2.6l-85.3.3V113.9l84.8.4c74.1.3 85.5.5 91.4 2z"/></svg>