<?xml version="1.0" standalone="no"?>
<!DOCTYPE svg PUBLIC "-//W3C//DTD SVG 20010904//EN"
 "http://www.w3.org/TR/2001/REC-SVG-20010904/DTD/svg10.dtd">
<svg version="1.0" xmlns="http://www.w3.org/2000/svg"
 width="2619.000000pt" height="591.000000pt" viewBox="0 0 2619.000000 591.000000"
 preserveAspectRatio="xMidYMid meet">
<metadata>
Created by potrace 1.16, written by Peter Selinger 2001-2019
</metadata>
<g transform="translate(0.000000,591.000000) scale(0.100000,-0.100000)"
fill="#000000" stroke="none">
<path d="M7302 5818 c-28 -51 -717 -1357 -1532 -2903 -815 -1545 -1495 -2834
-1510 -2862 l-28 -53 631 0 632 0 930 1769 c512 973 932 1767 935 1764 3 -2
422 -797 932 -1766 l926 -1762 632 -3 c361 -1 630 2 628 7 -14 37 -3114 5901
-3120 5901 -3 0 -29 -42 -56 -92z"/>
<path d="M17604 5878 c-9 -18 -707 -1342 -1551 -2941 -844 -1599 -1536 -2914
-1540 -2922 -4 -13 75 -15 624 -15 l629 0 929 1765 c510 971 931 1765 934
1765 4 0 425 -794 935 -1765 l929 -1765 629 0 c500 0 629 3 625 13 -17 44
-3109 5893 -3117 5895 -5 2 -16 -12 -26 -30z"/>
<path d="M3875 5693 c-297 -103 -542 -188 -544 -190 -2 -1 -7 -789 -11 -1750
-9 -1907 -6 -1813 -66 -2004 -105 -333 -330 -532 -690 -609 -73 -16 -149 -23
-289 -27 -228 -6 -365 10 -525 63 -153 51 -239 103 -345 209 -106 106 -158
192 -209 346 -53 158 -66 274 -66 578 0 216 -2 261 -14 261 -11 0 -1061 -338
-1106 -356 -11 -5 -12 -8 -2 -11 9 -3 12 -38 12 -124 0 -388 93 -807 247
-1114 120 -241 325 -474 537 -613 256 -168 559 -276 926 -328 154 -21 652 -30
832 -15 1165 103 1777 741 1858 1936 11 175 14 3935 3 3934 -5 0 -251 -84
-548 -186z"/>
<path d="M10587 5633 c-4 -137 -7 -386 -7 -555 l0 -308 848 0 c872 0 1007 -5
1187 -41 598 -120 1141 -594 1344 -1172 81 -232 105 -400 98 -677 -6 -223 -22
-323 -78 -504 -164 -531 -633 -1004 -1170 -1180 -222 -73 -278 -79 -721 -84
l-398 -4 0 1652 c0 1568 -1 1651 -17 1646 -10 -3 -259 -86 -553 -184 l-535
-179 -3 -2022 -2 -2022 997 4 c1073 4 1034 2 1304 58 502 103 980 361 1374
741 546 526 839 1119 906 1830 17 191 7 606 -20 782 -45 288 -127 549 -256
811 -142 290 -329 549 -570 790 -521 521 -1123 800 -1846 855 -77 6 -504 10
-1005 10 l-871 0 -6 -247z"/>
<path d="M20850 2940 l0 -2940 555 0 555 0 0 1190 0 1190 143 0 142 0 1190
-1190 1190 -1190 782 0 c431 0 783 3 783 7 0 5 -534 542 -1187 1195 -755 755
-1182 1189 -1173 1192 8 2 56 9 105 16 279 36 556 140 749 283 302 224 479
552 553 1027 26 165 26 655 0 820 -34 215 -80 372 -157 536 -62 132 -135 238
-234 342 -185 195 -407 317 -706 391 -272 67 -203 64 -1822 68 l-1468 4 0
-2941z m2872 1807 c283 -68 428 -277 428 -617 0 -206 -51 -360 -155 -469 -65
-69 -143 -113 -252 -143 -77 -22 -88 -22 -930 -26 l-853 -3 0 641 0 641 848
-4 c741 -3 855 -5 914 -20z"/>
</g>
</svg>
